# xmcd
# Copyright (C) 1995-1998 Ti Kan
#
# Track frame offsets:
#       150
#       12641
#       29934
#       51713
#       75126
#       97955
#       115736
#       132288
#       152318
#       168002
#       190733
#       206477
#       222372
#
# Disc length: 3230 seconds
#
# Revision: 0
# Processed by: cddbd v1.5.2PL0 Copyright (c) Steve Scherf et al.
# Submitted via: CD-Import v1.0
#
DISCID=a80c9c0d
DTITLE=Mr: - 
DYEAR=1900
DGENRE=
TTITLE0=Mr/Db: 46
TTITLE1=Mr/Db: 47
TTITLE2=Mr/Db: 48
TTITLE3=Mr/Db: 49
TTITLE4=Mr/Db: 50
TTITLE5=Mr/Db: 51
TTITLE6=Mr/Db: 52
TTITLE7=Mr/Db: 53
TTITLE8=Mr/Db: 54
TTITLE9=Mr/Db: 55
TTITLE10=Mr/Db: 56
TTITLE11=Mr/Db: 57
TTITLE12=Mr/Db: 58
EXTD=
EXTT0=
EXTT1=
EXTT2=
EXTT3=
EXTT4=
EXTT5=
EXTT6=
EXTT7=
EXTT8=
EXTT9=
EXTT10=
EXTT11=
EXTT12=
PLAYORDER=
